<?xml version="1.0" encoding="utf-8"?>
<!-- Generator: Adobe Illustrator 24.0.2, SVG Export Plug-In . SVG Version: 6.00 Build 0)  -->
<svg version="1.1" id="Capa_1" xmlns="http://www.w3.org/2000/svg" xmlns:xlink="http://www.w3.org/1999/xlink" x="0px" y="0px"
	 viewBox="0 0 1080 385" style="enable-background:new 0 0 1080 385;" xml:space="preserve">
<style type="text/css">
	.st0{fill:#FCA311;}
	.st1{fill:#14213D;}
	.st2{fill:#E5E5E5;}
	.st3{fill:#FFFFFF;}
</style>
<g>
	<rect x="0.27" y="246.56" class="st0" width="1078.74" height="138.76"/>
	<g>
		<path class="st1" d="M69.69,355.41c-6.1,0-11.71-1.01-16.86-3.03c-5.14-2.02-9.6-4.86-13.37-8.51c-3.77-3.66-6.7-7.96-8.8-12.91
			s-3.14-10.36-3.14-16.23c0-5.86,1.05-11.27,3.14-16.23c2.1-4.95,5.05-9.26,8.86-12.91c3.81-3.66,8.28-6.49,13.43-8.51
			s10.76-3.03,16.86-3.03c6.09,0,11.67,0.95,16.74,2.86c5.07,1.91,9.39,4.8,12.97,8.69l-5.26,5.37c-3.35-3.35-7.05-5.75-11.08-7.2
			c-4.04-1.45-8.38-2.17-13.03-2.17c-4.95,0-9.51,0.82-13.66,2.46c-4.15,1.64-7.77,3.96-10.86,6.97c-3.09,3.01-5.49,6.52-7.2,10.51
			c-1.72,4-2.57,8.4-2.57,13.2c0,4.73,0.86,9.11,2.57,13.14c1.71,4.04,4.11,7.56,7.2,10.57c3.09,3.01,6.7,5.33,10.86,6.97
			c4.15,1.64,8.67,2.46,13.54,2.46c4.57,0,8.89-0.69,12.97-2.06c4.07-1.37,7.83-3.69,11.26-6.97l4.8,6.4
			c-3.81,3.35-8.27,5.89-13.37,7.6C80.58,354.56,75.24,355.41,69.69,355.41z M90.94,344.21v-29.48h8.11v30.51L90.94,344.21z"/>
		<path class="st1" d="M122.94,354.73v-80h29.94c6.78,0,12.61,1.09,17.49,3.26c4.87,2.17,8.63,5.29,11.26,9.37
			c2.63,4.08,3.94,9.01,3.94,14.8c0,5.64-1.31,10.5-3.94,14.57c-2.63,4.08-6.38,7.2-11.26,9.37c-4.88,2.17-10.71,3.26-17.49,3.26
			h-25.26l3.77-3.89v29.26H122.94z M131.4,326.16l-3.77-4h25.03c8,0,14.07-1.75,18.23-5.26c4.15-3.5,6.23-8.42,6.23-14.74
			c0-6.4-2.08-11.35-6.23-14.86c-4.15-3.5-10.23-5.26-18.23-5.26h-25.03l3.77-4V326.16z M177.56,354.73l-20.57-29.03h9.14
			l20.68,29.03H177.56z"/>
		<path class="st1" d="M192.76,354.73l36.57-80h8.34l36.57,80h-8.91l-33.6-75.08h3.43l-33.6,75.08H192.76z M207.16,333.36l2.51-6.86
			h46.51l2.51,6.86H207.16z"/>
		<path class="st1" d="M287.5,354.73v-80h29.94c6.78,0,12.61,1.09,17.49,3.26c4.87,2.17,8.63,5.29,11.26,9.37
			c2.63,4.08,3.94,9.01,3.94,14.8c0,5.64-1.31,10.5-3.94,14.57c-2.63,4.08-6.38,7.22-11.26,9.43c-4.88,2.21-10.71,3.31-17.49,3.31
			h-25.26l3.77-4v29.26H287.5z M295.96,326.16l-3.77-4.11h25.03c8,0,14.07-1.73,18.23-5.2c4.15-3.47,6.23-8.36,6.23-14.68
			c0-6.4-2.08-11.35-6.23-14.86c-4.15-3.5-10.23-5.26-18.23-5.26h-25.03l3.77-4V326.16z"/>
		<path class="st1" d="M376.87,354.73h-8.46v-80h8.46V354.73z M427.72,317.81h-51.77v-7.43h51.77V317.81z M426.92,274.73h8.34v80
			h-8.34V274.73z"/>
		<path class="st1" d="M461.32,354.73v-80h8.46v80H461.32z"/>
		<path class="st1" d="M530.57,355.41c-6.02,0-11.58-1.01-16.68-3.03c-5.11-2.02-9.53-4.86-13.26-8.51
			c-3.73-3.66-6.65-7.96-8.74-12.91c-2.1-4.95-3.14-10.36-3.14-16.23c0-5.86,1.05-11.27,3.14-16.23c2.1-4.95,5.03-9.26,8.8-12.91
			c3.77-3.66,8.21-6.49,13.31-8.51c5.1-2.02,10.66-3.03,16.68-3.03c5.79,0,11.24,0.97,16.34,2.91c5.1,1.94,9.41,4.86,12.91,8.74
			l-5.37,5.37c-3.28-3.35-6.9-5.77-10.86-7.26c-3.96-1.49-8.23-2.23-12.8-2.23c-4.8,0-9.26,0.82-13.37,2.46
			c-4.11,1.64-7.7,3.96-10.74,6.97c-3.05,3.01-5.43,6.52-7.14,10.51c-1.72,4-2.57,8.4-2.57,13.2c0,4.8,0.86,9.2,2.57,13.2
			c1.71,4,4.09,7.5,7.14,10.51c3.05,3.01,6.63,5.33,10.74,6.97c4.11,1.64,8.57,2.46,13.37,2.46c4.57,0,8.84-0.76,12.8-2.29
			c3.96-1.52,7.58-3.96,10.86-7.31l5.37,5.37c-3.5,3.89-7.81,6.82-12.91,8.8C541.92,354.42,536.44,355.41,530.57,355.41z"/>
		<path class="st1" d="M571.83,327.3v-7.08h29.94v7.08H571.83z"/>
		<path class="st2" d="M621.65,354.73v-80h32.57c8.53,0,16.02,1.7,22.46,5.08c6.44,3.39,11.44,8.1,15.03,14.11
			c3.58,6.02,5.37,12.95,5.37,20.8c0,7.85-1.79,14.78-5.37,20.8s-8.59,10.72-15.03,14.11c-6.44,3.39-13.93,5.08-22.46,5.08H621.65z
			 M630.11,347.41h23.66c7.09,0,13.24-1.39,18.46-4.17c5.22-2.78,9.27-6.63,12.17-11.54c2.9-4.91,4.34-10.57,4.34-16.97
			c0-6.47-1.45-12.15-4.34-17.03c-2.9-4.87-6.95-8.7-12.17-11.48c-5.22-2.78-11.37-4.17-18.46-4.17h-23.66V347.41z"/>
		<path class="st2" d="M724.5,347.41h48.11v7.31h-56.57v-80h54.85v7.31h-46.4V347.41z M723.59,310.5h42.28v7.2h-42.28V310.5z"/>
		<path class="st2" d="M814.56,355.41c-5.94,0-11.64-0.97-17.09-2.91c-5.45-1.94-9.66-4.44-12.63-7.49l3.31-6.51
			c2.82,2.74,6.61,5.05,11.37,6.91c4.76,1.87,9.77,2.8,15.03,2.8c5.03,0,9.12-0.63,12.28-1.89c3.16-1.26,5.49-2.95,6.97-5.08
			c1.48-2.13,2.23-4.49,2.23-7.08c0-3.12-0.9-5.64-2.69-7.54c-1.79-1.9-4.13-3.41-7.03-4.52c-2.9-1.1-6.1-2.07-9.6-2.91
			c-3.5-0.84-7.01-1.73-10.51-2.69c-3.5-0.95-6.73-2.23-9.66-3.83c-2.93-1.6-5.29-3.71-7.08-6.34c-1.79-2.63-2.69-6.07-2.69-10.34
			c0-3.96,1.05-7.6,3.14-10.91c2.1-3.31,5.31-5.98,9.66-8s9.9-3.03,16.68-3.03c4.49,0,8.95,0.63,13.37,1.89
			c4.42,1.26,8.23,2.99,11.43,5.2l-2.86,6.74c-3.43-2.29-7.07-3.96-10.91-5.03c-3.85-1.07-7.56-1.6-11.14-1.6
			c-4.8,0-8.76,0.65-11.88,1.94c-3.12,1.3-5.43,3.03-6.91,5.2c-1.48,2.17-2.23,4.63-2.23,7.37c0,3.12,0.9,5.64,2.69,7.54
			c1.79,1.91,4.15,3.39,7.09,4.46c2.93,1.07,6.15,2.02,9.66,2.86c3.5,0.84,6.99,1.75,10.46,2.74c3.47,0.99,6.66,2.27,9.6,3.83
			c2.93,1.56,5.29,3.64,7.08,6.23c1.79,2.59,2.69,5.98,2.69,10.17c0,3.89-1.07,7.49-3.2,10.8c-2.14,3.31-5.39,5.98-9.77,8
			C827.03,354.4,821.41,355.41,814.56,355.41z"/>
		<path class="st2" d="M862.78,354.73v-80h8.46v80H862.78z"/>
		<path class="st2" d="M932.38,355.41c-6.1,0-11.71-1.01-16.86-3.03c-5.14-2.02-9.6-4.86-13.37-8.51c-3.77-3.66-6.7-7.96-8.8-12.91
			s-3.14-10.36-3.14-16.23c0-5.86,1.05-11.27,3.14-16.23c2.1-4.95,5.05-9.26,8.86-12.91c3.81-3.66,8.28-6.49,13.43-8.51
			s10.76-3.03,16.86-3.03c6.09,0,11.67,0.95,16.74,2.86c5.07,1.91,9.39,4.8,12.97,8.69l-5.26,5.37c-3.35-3.35-7.05-5.75-11.08-7.2
			c-4.04-1.45-8.38-2.17-13.03-2.17c-4.95,0-9.51,0.82-13.66,2.46c-4.15,1.64-7.77,3.96-10.86,6.97c-3.08,3.01-5.49,6.52-7.2,10.51
			c-1.72,4-2.57,8.4-2.57,13.2c0,4.73,0.86,9.11,2.57,13.14c1.71,4.04,4.11,7.56,7.2,10.57c3.09,3.01,6.7,5.33,10.86,6.97
			c4.15,1.64,8.67,2.46,13.54,2.46c4.57,0,8.89-0.69,12.97-2.06c4.07-1.37,7.83-3.69,11.26-6.97l4.8,6.4
			c-3.81,3.35-8.27,5.89-13.37,7.6C943.27,354.56,937.94,355.41,932.38,355.41z M953.63,344.21v-29.48h8.11v30.51L953.63,344.21z"/>
		<path class="st2" d="M985.63,354.73v-80h6.97l55.2,69.48h-3.66v-69.48h8.34v80h-6.97l-55.08-69.48h3.66v69.48H985.63z"/>
	</g>
	<g>
		<path class="st1" d="M88.04,139.45C35.21,122.17,6.52,101.62,6.52,67.06c0-43.04,40.43-65.21,98.14-65.21
			c42.72,0,92.28,9.13,92.28,9.13l-10.43,68.8h-8.8c-21.52-42.06-44.34-62.93-73.04-62.93c-27.06,0-40.76,11.41-40.76,28.37
			c0,16.3,12.39,29.35,53.8,42.72c62.28,20.21,85.1,40.11,85.1,79.56c0,35.87-26.74,70.43-101.08,70.43
			c-43.37,0-90.65-17.28-90.65-17.28L0,138.8h8.8c32.28,56.73,59.67,84.45,92.93,84.12c28.04,0,42.72-16.3,42.72-33.91
			C144.45,169.45,130.75,153.47,88.04,139.45z"/>
		<path class="st1" d="M471.79,226.18v8.48H361.58v-8.48c19.89-11.41,14.35-30.98,2.61-57.71H274.2
			c-9.13,29.35,1.3,47.28,19.24,57.71v8.48h-90.65v-8.48c25.76-14.67,39.13-32.93,59.34-77.6l67.5-148.69h22.17
			c0.33,1.3,0.98,2.61,1.3,3.26l62.6,138.9C427.77,168.47,453.21,215.42,471.79,226.18z M357.35,153.14l-38.48-84.78l-38.48,84.78
			H357.35z"/>
		<path class="st1" d="M722.51,3.8v8.48c-20.21,11.74-35.87,35.87-35.87,65.87v156.51h-20.22L537.63,76.19v84.12
			c0,29.02,17.28,55.11,35.87,65.87v8.48h-91.95v-8.48c20.21-11.74,35.87-35.87,35.87-65.87V78.15c0-29.02-17.28-55.11-35.87-65.87
			V3.8h72.06l112.82,138.9V78.15c0-29.02-17.28-55.11-35.87-65.87V3.8H722.51z"/>
		<path class="st1" d="M873.13,159.99c0,29.02,10.76,55.43,29.35,65.87v8.8H785.74v-8.8c20.21-11.41,29.34-35.87,29.34-65.87V18.48
			h-8.48c-23.48,0-39.45,10.76-69.13,62.28h-8.48l9.78-76.95h210.64l9.78,76.95h-8.48c-29.34-51.52-45.65-62.28-69.12-62.28h-8.48
			V159.99z"/>
		<g>
			<path class="st1" d="M1024.93,210.65c0-1.91-1.55-3.45-3.46-3.46c-1.91,0-3.45,1.55-3.46,3.46c0,1.7,1.24,3.11,2.86,3.4
				l0.25,0.29l0,20.32h0.69l0-20.32l0.25-0.29C1023.69,213.76,1024.93,212.36,1024.93,210.65z"/>
			<path class="st1" d="M1080,12.28V3.8H963.27v8.48c18.59,10.76,29.35,36.84,29.35,65.87v82.17c0,30-9.13,54.13-29.67,65.87v8.48
				h57.52l-10.8-27.57v-0.22l4.85-12.37l0.28-0.19l12.37,0l0.27,0.17l5.84,12.37l0.01,0.24l-10.81,27.57H1080v-8.48
				c-18.59-10.76-29.35-36.84-29.35-65.87V78.15C1050.65,48.15,1059.79,24.02,1080,12.28z M1034.63,169.03
				c-0.09,2.56-0.22,4.85-0.4,6.89c-1.6,18.09-6.7,16.59-12.75,16.59c-6.05,0-11.16,1.5-12.75-16.59c-0.18-2.04-0.32-4.33-0.4-6.89
				c-0.08-2.24-0.12-4.68-0.12-7.37c0-1.47,0.02-2.97,0.04-4.49c0.49-32.74,6.23-76.23,13.23-76.23c7.01,0,12.74,43.5,13.24,76.23
				c0.02,1.52,0.04,3.02,0.04,4.48C1034.75,164.35,1034.7,166.79,1034.63,169.03z"/>
		</g>
	</g>
</g>
</svg>
